PathFileType	4	(X/Y/Z)	3_coords_data.trc
DataRate	CameraRate	NumFrames	NumMarkers	Units	OrigDataRate	OrigDataStartFrame	OrigNumFrames
30.0	30.0	6	21	m	30.0	30	49
Frame#	Time	THUMB_TIP	THUMB_IP	THUMB_MCP	THUMB_CMC	INDEX_TIP	INDEX_DIP	INDEX_PIP	INDEX_MCP	MIDDLE_TIP	MIDDLE_DIP	MIDDLE_PIP	MIDDLE_MCP	RING_TIP	RING_DIP	RING_PIP	RING_MCP	PINKY_TIP	PINKY_DIP	PINKY_PIP	PINKY_MCP	WRIST
X1	Y1	Z1	X2	Y2	Z2	X3	Y3	Z3	X4	Y4	Z4	X5	Y5	Z5	X6	Y6	Z6	X7	Y7	Z7	X8	Y8	Z8	X9	Y9	Z9	X10	Y10	Z10	X11	Y11	Z11	X12	Y12	Z12	X13	Y13	Z13	X14	Y14	Z14	X15	Y15	Z15	X16	Y16	Z16	X17	Y17	Z17	X18	Y18	Z18	X19	Y19	Z19	X20	Y20	Z20	X21	Y21	Z21
29	0.9666666666666667	-0.07197570037841797	-0.13466299438476562	0.9816240234375	-0.07648629760742187	-0.11378199768066406	1.0008599853515625	-0.08635700225830079	-0.09682430267333984	1.026780029296875	-0.0920645980834961	-0.06582489776611328	1.0480899658203124	-0.05888539886474609	-0.08805560302734375	0.9087960205078125	-0.06602999877929687	-0.08494770050048828	0.9313829956054688	-0.0740865020751953	-0.08130660247802735	0.9543419799804688	-0.0858643035888672	-0.07407479858398437	0.9904459838867188	-0.059521999359130856	-0.05749679946899414	0.8983099975585938	-0.06719249725341797	-0.05614590072631836	0.9225419921875	-0.07700479888916016	-0.05432979965209961	0.9509569702148437	-0.08825189971923827	-0.05200669860839844	0.9865280151367187	-0.054727401733398434	-0.014339900016784668	0.916468017578125	-0.06570290374755859	-0.01837019920349121	0.9370789794921875	-0.07821600341796875	-0.023492700576782228	0.9601240234375	-0.0912957992553711	-0.032250900268554684	0.9940289916992188	-0.05642950057983399	0.015253600120544433	0.9509329833984375	-0.06730909729003906	0.007302800178527832	0.965822021484375	-0.0772074966430664	-0.0009530280232429501	0.9799530029296875	-0.08704299926757812	-0.014919699668884278	1.002530029296875	-0.11662200164794922	-0.040394298553466795	1.0665400390625
30	1.0	-0.07215360260009765	-0.13482200622558593	0.9815289916992187	-0.07667060089111329	-0.11391699981689453	1.00077001953125	-0.08649949645996094	-0.09697460174560547	1.0266500244140624	-0.0921321029663086	-0.06601339721679687	1.0479599609375	-0.059107398986816405	-0.0882783966064453	0.9086900024414063	-0.06623249816894532	-0.08517579650878906	0.931260986328125	-0.07420909881591797	-0.08145809936523438	0.9542449951171875	-0.08591079711914062	-0.07416449737548828	0.9902440185546875	-0.0597484016418457	-0.05778580093383789	0.898135009765625	-0.0674167022705078	-0.05636980056762695	0.9223699951171875	-0.07722170257568359	-0.05456019973754883	0.95081298828125	-0.08838210296630859	-0.05213800048828125	0.9863770141601562	-0.05490539932250976	-0.014616700172424316	0.9163189697265625	-0.06580960083007813	-0.01859980010986328	0.93689501953125	-0.07835659790039062	-0.023692899703979493	0.9600330200195313	-0.09144319915771484	-0.03244710159301758	0.9940150146484374	-0.05657229995727539	0.014961700439453125	0.9507340087890624	-0.06745110321044921	0.007047130107879639	0.9656599731445312	-0.07733940124511719	-0.00116280996799469	0.97981201171875	-0.08720279693603515	-0.01507740020751953	1.0024299926757811	-0.11662000274658203	-0.04045180130004883	1.0663199462890625
31	1.0333333333333334	-0.0722499008178711	-0.1349290008544922	0.9815369873046875	-0.0767698974609375	-0.11405599975585938	1.0006900024414063	-0.08658499908447266	-0.09711119842529296	1.02656005859375	-0.09239099884033203	-0.0661094970703125	1.048030029296875	-0.05926679992675781	-0.08844229888916015	0.9086619873046875	-0.06642520141601563	-0.08532820129394532	0.9312130126953125	-0.07434829711914062	-0.08159369659423828	0.954280029296875	-0.08611810302734375	-0.07435150146484375	0.9901179809570313	-0.05991059875488281	-0.0579718017578125	0.8980390014648437	-0.06755120086669922	-0.05653969955444336	0.9222680053710938	-0.07732620239257812	-0.05472150039672852	0.9506699829101563	-0.08841380310058594	-0.05232590103149414	0.9861389770507812	-0.055108001708984375	-0.014821200370788575	0.9161610107421875	-0.06599729919433593	-0.018773399353027343	0.936760986328125	-0.07851460266113282	-0.023870399475097656	0.9598619995117188	-0.09158190155029297	-0.03259830093383789	0.993791015625	-0.05681389999389649	0.014757399559020995	0.9504310302734374	-0.06766020202636719	0.0068485898971557616	0.9654119873046875	-0.07752249908447266	-0.001342030048370361	0.9796669921875	-0.08734349822998047	-0.015227299690246582	1.002260009765625	-0.11678399658203124	-0.040567501068115235	1.0663800048828125
32	1.0666666666666667	-0.07239209747314453	-0.1349499969482422	0.9814660034179687	-0.0770093002319336	-0.11399600219726562	1.0006199951171875	-0.08672139739990234	-0.09713919830322265	1.02652001953125	-0.09238500213623047	-0.06612979888916015	1.0479000244140626	-0.05930080032348633	-0.08845700073242188	0.9086220092773437	-0.0664553985595703	-0.08534629821777344	0.931155029296875	-0.07442169952392579	-0.08167569732666016	0.9541939697265625	-0.08614959716796874	-0.07438670349121093	0.990135009765625	-0.05994210052490234	-0.05799259948730469	0.8980120239257813	-0.06763580322265625	-0.05659220123291016	0.922260986328125	-0.07734880065917969	-0.054794601440429684	0.95064697265625	-0.0886052017211914	-0.05234619903564453	0.9862689819335938	-0.05513349914550781	-0.014852299690246581	0.9161599731445312	-0.06606950378417968	-0.01881760025024414	0.9366859741210938	-0.07859950256347656	-0.02393429946899414	0.9598369750976562	-0.09173500061035156	-0.032670501708984376	0.99389697265625	-0.057051998138427734	0.014618599891662597	0.9504290161132812	-0.06780999755859375	0.00675452995300293	0.9652999877929688	-0.07762030029296875	-0.001421249985694885	0.97947998046875	-0.08747059631347656	-0.015274900436401367	1.0022100219726562	-0.11713800048828125	-0.04035589981079102	1.06643994140625
33	1.1	-0.07239450073242187	-0.13491299438476562	0.9813900146484374	-0.0769166030883789	-0.11395500183105468	1.0006699829101562	-0.08673480224609376	-0.09707749938964844	1.02656005859375	-0.09249639892578125	-0.06615229797363281	1.0479599609375	-0.059273101806640624	-0.08836509704589844	0.90864697265625	-0.0664561996459961	-0.08524759674072266	0.9312169799804687	-0.07445449829101562	-0.08163159942626953	0.9541489868164063	-0.08604969787597656	-0.07435579681396484	0.99014697265625	-0.059937900543212894	-0.05796009826660156	0.89802001953125	-0.06760579681396485	-0.05654290008544922	0.9222650146484375	-0.07735829925537109	-0.05472010040283203	0.9506749877929688	-0.08858090209960938	-0.052320598602294925	0.9863170166015625	-0.05520009994506836	-0.0147878999710083	0.9161580200195313	-0.06615769958496094	-0.018762800216674806	0.9367139892578125	-0.07874210357666016	-0.02389259910583496	0.9599140014648437	-0.09170259857177734	-0.03259799957275391	0.9938389892578126	-0.05708729934692383	0.014696200370788575	0.9503170166015625	-0.06791020202636719	0.006834320068359375	0.96527197265625	-0.0777041015625	-0.001365560054779052	0.9794000244140625	-0.08748999786376953	-0.01520400047302246	1.0021799926757813	-0.11691699981689453	-0.040558700561523435	1.06627001953125
34	1.1333333333333333	-0.07237660217285156	-0.1348769989013672	0.9814420166015625	-0.07691739654541016	-0.11392900085449219	1.0006699829101562	-0.08672239685058594	-0.0970470962524414	1.026550048828125	-0.09243669891357421	-0.06606310272216796	1.0478800048828125	-0.05912860107421875	-0.08832379913330078	0.9086900024414063	-0.06635079956054687	-0.08521749877929688	0.9312039794921875	-0.07437069702148437	-0.08154789733886719	0.9542570190429688	-0.08612000274658203	-0.07434230041503906	0.990197998046875	-0.05977019882202148	-0.057870498657226564	0.8981190185546875	-0.06750620269775391	-0.056458099365234375	0.9223740234375	-0.07735130310058594	-0.0546697006225586	0.9508179931640625	-0.08864309692382813	-0.052290000915527345	0.9863670043945313	-0.055063701629638674	-0.01475	0.9162639770507812	-0.06603250122070313	-0.018722400665283204	0.9367999877929688	-0.07859750366210938	-0.023839599609375	0.9599719848632813	-0.09168589782714844	-0.03256439971923828	0.9938519897460938	-0.057026599884033205	0.014723699569702148	0.9504019775390625	-0.06781919860839844	0.006870150089263916	0.9653619995117187	-0.0776583023071289	-0.0013108299970626832	0.9795919799804688	-0.08747049713134766	-0.015181900024414063	1.00222998046875	-0.1169749984741211	-0.04041590118408203	1.0664200439453124
